<svg style="display: none" version="1.1" xmlns="http://www.w3.org/2000/svg" xmlns:xlink="http://www.w3.org/1999/xlink">
	<defs>

		<!-- WIFI -->
    <symbol id="icon-wifi" viewBox="81 2 14 10">
      <title>Wifi icon</title>
      <path d="M90.1444208,9.43850432 C89.626374,8.84544555 88.8523616,8.46891192 87.987563,8.46891192 C87.1390073,8.46891192 86.3778594,8.83143413 85.8601652,9.40531769 L88.0225391,11.5 L90.1444208,9.43850432 Z M92.3234964,7.32144245 C91.2447794,6.19174563 89.7014387,5.48445596 87.987563,5.48445596 C86.2882723,5.48445596 84.7566264,6.17975893 83.6792698,7.29269359 L84.7692987,8.34859996 C85.567205,7.5053708 86.713648,6.97668394 87.987563,6.97668394 C89.2768836,6.97668394 90.4356305,7.51823504 91.2346215,8.37932931 L92.3234964,7.32144245 L92.3234964,7.32144245 Z M94.5,5.20687933 C92.8629578,3.53943672 90.5505699,2.5 87.987563,2.5 C85.4375103,2.5 83.1355496,3.52895605 81.5,5.18164431 L82.5895579,6.23709441 C83.9460798,4.85431655 85.8628921,3.99222798 87.987563,3.99222798 C90.1260026,3.99222798 92.0538809,4.86552609 93.4118698,6.26404272 L94.5,5.20687933 Z" id="Wi-Fi" stroke="none" fill="#030303" fill-rule="evenodd"></path>
    </symbol>

		<!-- BATTERY -->
		<symbol id="icon-battery" viewBox="36 2 25 10">
			<title>Battery icon</title>
      <path d="M37.4937128,2.5 C36.668758,2.5 36,3.16802155 36,4.00530324 L36,10.4946968 C36,11.3260528 36.6733803,12 37.4937128,12 L57.0062872,12 C57.831242,12 58.5,11.3319784 58.5,10.4946968 L58.5, 4.00530324 C58.5,3.17394722 57.8266197,2.5 57.0062872,2.5 L37.4937128,2.5 Z M59,5.5 L59,9 L59.75,9 C60.1642136,9 60.5,8.66440529 60.5,8.25774002 L60.5,6.24225998 C60.5,5.83232111 60.1671014,5.5 59.75,5.5 L59,5.5 Z M37.5081524,3 C36.9513652,3 36.5,3.45699692 36.5,4.00844055 L36.5,10.4915594 C36.5,11.0485058 36.9490581,11.5 37.5081524,11.5 L56.9918476,11.5 C57.5486348,11.5 58,11.0430031 58,10.4915594 L58,4.00844055 C58,3.45149422 57.5509419,3 56.9918476,3 L37.5081524,3 Z M37.5067444,3.5 C37.2268772,3.5 37,3.71637201 37,3.99209595 L37,10.5079041 C37,10.7796811 37.2302246,11 37.5067444,11 L56.9932556,11 C57.2731228,11 57.5,10.783628 57.5,10.5079041 L57.5,3.99209595 C57.5,3.72031886 57.2697754,3.5 56.9932556,3.5 L37.5067444,3.5 Z" stroke="none" fill="#030303" fill-rule="evenodd"></path>
		</symbol>

		<!-- CLOSE -->
		<symbol id="icon-close" fill="#ffffff" viewBox="0 0 24 24">
			<title>Close icon</title>
      <path d="M19 6.41L17.59 5 12 10.59 6.41 5 5 6.41 10.59 12 5 17.59 6.41 19 12 13.41 17.59 19 19 17.59 13.41 12z"/>
      <path d="M0 0h24v24H0z" fill="none"/>
		</symbol>

		<!-- CODEPEN -->
		<symbol id="icon-codepen" viewBox="0 0 256 256">
			<title>Codepen icon</title>
      <path d="M255.806943,87.0866439 C255.748337,86.7763743 255.696625,86.4661047 255.613887,86.1627299 C255.562175,85.9800156 255.500121,85.8076436 255.441515,85.6283767 C255.355329,85.3594764 255.265695,85.0905761 255.158825,84.8285707 C255.082981,84.6458563 254.996795,84.4700369 254.914056,84.2942175 C254.796843,84.0460018 254.676183,83.8012335 254.538285,83.5633602 C254.441757,83.3875407 254.331439,83.2220636 254.224568,83.0531391 C254.076328,82.825608 253.924641,82.6015244 253.759164,82.3843357 C253.638504,82.222306 253.514396,82.0671712 253.383393,81.9120364 C253.211021,81.70519 253.024859,81.5086859 252.838698,81.3156293 C252.693905,81.1708368 252.549113,81.0260443 252.397425,80.8846993 C252.197474,80.701985 251.990627,80.529613 251.773439,80.3641359 C251.607961,80.2365806 251.445932,80.1055779 251.27356,79.9883649 C251.211506,79.9435482 251.156347,79.8918366 251.090845,79.8504673 L134.098521,1.8486897 C130.406313,-0.616229901 125.590239,-0.616229901 121.898031,1.8486897 L4.89881225,79.8470198 C4.83331089,79.8883891 4.78159929,79.9401007 4.71609793,79.9849174 C4.54372593,80.1055779 4.38169625,80.2331331 4.21621913,80.3606884 C4.00247785,80.529613 3.79218401,80.701985 3.59223249,80.8778044 C3.44054513,81.015702 3.29575265,81.1604945 3.15440761,81.3087344 C2.96135097,81.5017911 2.78208409,81.6982951 2.60626464,81.9051415 C2.47526192,82.0602763 2.35115408,82.2154111 2.23049368,82.3877831 C2.06501656,82.6049719 1.9133292,82.825608 1.76508928,83.0565865 C1.65821864,83.2255111 1.551348,83.3909882 1.45137224,83.5668076 C1.31347464,83.804681 1.19281424,84.0494492 1.07904872,84.29077 C0.996310162,84.4665895 0.906676722,84.6458563 0.834280482,84.8251232 C0.727409841,85.0871287 0.634328961,85.356029 0.548142961,85.6249293 C0.489536481,85.8041962 0.427482561,85.9800156 0.379218401,86.1420453 C0.299927281,86.44542 0.2413208,86.7522422 0.18616176,87.0659592 C0.1551348,87.2245415 0.11721296,87.3796763 0.0965283202,87.5417059 C0.0344744001,88.0174527 2.84217094e-14,88.4931994 2.84217094e-14,88.9792884 L2.84217094e-14,166.994856 C2.84217094e-14,167.477497 0.0344744001,167.960139 0.1034232,168.432438 C0.12755528,168.60481 0.172372,168.742708 0.2068464,168.908185 C0.26200544,169.218455 0.310269601,169.528724 0.413692801,169.838994 C0.461956961,170.011366 0.517116001,170.183738 0.586064801,170.373347 C0.672250801,170.649142 0.758436801,170.924937 0.861860002,171.176601 C0.934256242,171.348973 1.034232,171.521345 1.1031808,171.693717 C1.21694632,171.935037 1.3445016,172.176358 1.4823992,172.428021 C1.57892752,172.600393 1.6892456,172.772765 1.7926688,172.931347 C1.94090872,173.172668 2.1029384,173.379515 2.2753104,173.586361 C2.3959708,173.758733 2.5166312,173.896631 2.6545288,174.062108 C2.83034825,174.268954 2.99927281,174.475801 3.20611921,174.658515 C3.34746425,174.796413 3.48191441,174.968785 3.65428641,175.072208 C3.85423793,175.24458 4.06797921,175.416952 4.27482561,175.596219 C4.44030273,175.734116 4.61956961,175.837539 4.75746721,175.97199 C4.82296857,176.006464 4.86089041,176.075413 4.92983921,176.10644 L121.898031,254.146139 C123.745859,255.387218 125.862587,256.007757 128,255.997414 C130.137413,255.987072 132.254141,255.376875 134.101969,254.146139 L251.101188,176.147809 C251.166689,176.10644 251.221848,176.058176 251.283902,176.013359 C251.456274,175.892698 251.618304,175.765143 251.783781,175.637588 C251.997522,175.468663 252.207816,175.292844 252.407768,175.113577 C252.559455,174.979127 252.704247,174.830887 252.84904,174.686094 C253.038649,174.493038 253.221363,174.296534 253.393735,174.089687 C253.524738,173.934553 253.648846,173.779418 253.769506,173.613941 C253.934983,173.396752 254.086671,173.172668 254.234911,172.945137 C254.341781,172.77966 254.448652,172.610736 254.548628,172.441811 C254.686525,172.20049 254.807186,171.955722 254.924399,171.707506 C255.007137,171.531687 255.093323,171.355867 255.169167,171.176601 C255.276038,170.911148 255.365671,170.642247 255.451857,170.373347 C255.510464,170.19408 255.572517,170.018261 255.624229,169.838994 C255.70352,169.535619 255.758679,169.225349 255.817286,168.91508 C255.844865,168.756498 255.886234,168.601363 255.903472,168.439333 C255.965526,167.963586 256,167.48784 256,167.001751 L256,88.9999731 C256,88.513884 255.962078,88.0381373 255.903472,87.5623906 C255.875892,87.393466 255.824181,87.2555684 255.789706,87.0866439 L255.806943,87.0866439 Z M127.996553,154.022139 L89.0921921,128.000862 L127.996553,101.976137 L166.90436,128.000862 L127.996553,154.022139 L127.996553,154.022139 Z M116.999219,82.8669773 L69.3073339,114.76614 L30.8097713,89.0137628 L116.999219,31.5552802 L116.999219,82.8669773 L116.999219,82.8669773 Z M49.5224757,127.997414 L22.0050096,146.403297 L22.0050096,109.591532 L49.5224757,127.997414 L49.5224757,127.997414 Z M69.3073339,141.242479 L116.999219,173.138194 L116.999219,224.449891 L30.8097713,166.984513 L69.3073339,141.235584 L69.3073339,141.242479 Z M138.997334,173.131299 L186.689219,141.235584 L225.190229,166.984513 L138.997334,224.442996 L138.997334,173.131299 L138.997334,173.131299 Z M206.474077,128.004309 L233.99499,109.59498 L233.99499,146.410191 L206.474077,127.997414 L206.474077,128.004309 Z M186.689219,114.76614 L138.997334,82.8704247 L138.997334,31.5552802 L225.190229,89.0137628 L186.689219,114.76614 L186.689219,114.76614 Z" fill="#ddd"></path>
		</symbol>

		<!-- DRIBBBLE -->
		<symbol id="icon-dribbble" viewBox="0 0 256 256">
			<title>Dribbble icon</title>
			<path d="M128,8.5 C194,8.5 247.4,61.9 247.4,127.8 C247.4,193.7 194,247.2 128,247.2 C62,247.2 8.6,193.8 8.6,127.9 C8.6,62 62,8.5 128,8.5 L128,8.5 L128,8.5 Z" fill="#E74D89"></path>
			<path d="M128,255.7 C57.4,255.7 0,198.4 0,127.9 C0,57.3 57.4,0 128,0 C198.6,0 256,57.3 256,127.8 C256,198.3 198.6,255.7 128,255.7 L128,255.7 L128,255.7 Z M235.9,145.3 C232.2,144.1 202.1,135.2 167.8,140.6 C182.1,179.8 187.9,211.8 189,218.4 C213.6,201.9 231.1,175.7 235.9,145.3 L235.9,145.3 L235.9,145.3 Z M170.7,228.5 C169.1,218.9 162.7,185.5 147.4,145.7 C147.2,145.8 146.9,145.9 146.7,145.9 C85,167.4 62.9,210.1 60.9,214.1 C79.4,228.5 102.7,237.1 128,237.1 C143.1,237.2 157.6,234.1 170.7,228.5 L170.7,228.5 L170.7,228.5 Z M46.8,201 C49.3,196.8 79.3,147.2 135.7,128.9 C137.1,128.4 138.6,128 140,127.6 C137.3,121.4 134.3,115.2 131.1,109.1 C76.5,125.4 23.5,124.7 18.7,124.6 C18.7,125.7 18.6,126.8 18.6,127.9 C18.7,156 29.3,181.6 46.8,201 L46.8,201 L46.8,201 Z M21,105.6 C25.9,105.7 70.9,105.9 122.1,92.3 C104,60.1 84.4,33.1 81.6,29.2 C50.9,43.6 28.1,71.8 21,105.6 L21,105.6 L21,105.6 Z M102.4,21.8 C105.4,25.8 125.3,52.8 143.2,85.7 C182.1,71.1 198.5,49.1 200.5,46.3 C181.2,29.2 155.8,18.8 128,18.8 C119.2,18.8 110.6,19.9 102.4,21.8 L102.4,21.8 L102.4,21.8 Z M212.6,58.9 C210.3,62 192,85.5 151.6,102 C154.1,107.2 156.6,112.5 158.9,117.8 C159.7,119.7 160.5,121.6 161.3,123.4 C197.7,118.8 233.8,126.2 237.4,126.9 C237.1,101.2 227.9,77.5 212.6,58.9 L212.6,58.9 L212.6,58.9 Z" fill="#B2215A"></path>
		</symbol>

		<!-- GITHUB -->
		<symbol id="icon-github" viewBox="10 10 24 24">
			<title>Github icon</title>
	    <path d="M10,22.3044338 C10,27.7398363 13.4380429,32.3519218 18.2065134,33.9789169 C18.8069002,34.0922174 19.0256914,33.7122831 19.0256914,33.3859777 C19.0256914,33.0936624 19.015378,32.3201977 19.0094846,31.2936952 C15.671629,32.0369464 14.9673716,29.6440399 14.9673716,29.6440399 C14.4214985,28.2224964 13.634734,27.8440727 13.634734,27.8440727 C12.5451978,27.0804274 13.7172412,27.0962895 13.7172412,27.0962895 C14.921698,27.1831532 15.555235,28.3644997 15.555235,28.3644997 C16.6263544,30.2445326 18.364161,29.7014455 19.0477915,29.3864702 C19.1568188,28.5911007 19.4669572,28.0495243 19.8095092,27.741347 C17.1449707,27.4309036 14.3434114,26.3756983 14.3434114,21.660887 C14.3434114,20.3171431 14.8111974,19.2188837 15.5788084,18.3585552 C15.4557844,18.0473565 15.0439854,16.7965191 15.6966758,15.1030543 C15.6966758,15.1030543 16.7044415,14.7714615 18.9962246,16.3637112 C19.9538967,16.0910346 20.9800792,15.9543187 22.0003683,15.9497867 C23.0199208,15.9543187 24.0461033,16.0910346 25.0052488,16.3637112 C27.2955585,14.7714615 28.3018509,15.1030543 28.3018509,15.1030543 C28.9560146,16.7965191 28.5442156,18.0473565 28.4211916,18.3585552 C29.1902759,19.2188837 29.6543786,20.3171431 29.6543786,21.660887 C29.6543786,26.3870284 26.8491359,27.4271269 24.1757574,27.7322829 C24.6067098,28.1122172 24.9897787,28.8630219 24.9897787,30.0103782 C24.9897787,31.6555014 24.9757819,32.9826279 24.9757819,33.3859777 C24.9757819,33.7153044 25.1916265,34.0975048 25.8008533,33.9774062 C30.5649038,32.3473898 34,27.7390809 34,22.3044338 C34,15.5086701 28.6267227,10 21.998895,10 C15.3732773,10 10,15.5086701 10,22.3044338 Z" stroke="none" fill="#fff" fill-rule="evenodd">
	    </path>
		</symbol>

		<!-- GMAIL -->
		<symbol id="icon-gmail" viewBox="0 0 512 512">
			<title>Gmail icon</title>
			<path d="M461.1,70.3c4.5-2.7,9.1-1.2,13.5,0c17.1,4.7,29.2,20.4,29.5,38.3c0.1,4.5-0.1,9-0.1,13.4c-1.3,0-2.1,0.8-3.1,1.5c-12.6,9-25.4,18-37.9,27.1c-5.1,3.7-10.7,6.6-15,11.3c-1.8,0-3.1,1.2-4.4,2.1 c-41.6,28.7-83.2,57.3-124.7,86c-20.6,14.2-41.2,28.6-61.8,42.9c-0.6,0-1.2,0-1.7,0c-0.9-0.7-1.7-1.6-2.6-2.2c-50.7-35.3-101.4-70.6-152.1-105.9c-10.4-7.2-20.8-14.5-31.2-21.7c-1.2-0.8-2.3-2.5-3.8-1.6c-1.4,0.8-0.5,2.7-0.7,4.2c-0.1,0.5,0,1,0,1.5c0,83.5,0,167,0,250.5c0,1.8,0.1,3.7,0.2,5.5c0,1-0.1,1.9-0.1,2.9c-19,2.3-36.3-0.3-48.2-17.5c-4.3-6.3-6.8-13.3-6.8-21.1c0-93.3-0.1-186.5,0.1-279.8c0-19,15.4-35.8,34.3-38.5c3-0.4,6-0.8,8.6,1.2c0.6,0.6,1.1,1.2,1.8,1.7c66.1,49,132.2,98,198.3,147.1c2.6,1.9,4.3,1.8,6.9-0.1c52.8-39,105.7-77.9,158.5-116.8C432.6,91.6,446.8,80.9,461.1,70.3z" fill="#E65A4D"/>
			<path d="M461.1,70.3c-14.3,10.6-28.5,21.3-42.8,31.9C365.5,141.2,312.6,180,259.8,219c-2.6,1.9-4.2,2-6.9,0.1C186.9,170,120.8,121.1,54.7,72c-0.7-0.5-1.2-1.1-1.8-1.7c1.2-2,3.3-1.3,5-1.3c132.7,0,265.5,0,398.2,0C457.8,69,459.8,68.3,461.1,70.3z" fill="#F6F4EC"/>
			<path d="M65,423c-0.1-1.8-0.2-3.7-0.2-5.5c0-83.5,0-167,0-250.5c0-0.5-0.1-1,0-1.5c0.2-1.4-0.7-3.3,0.7-4.2c1.5-0.9,2.7,0.8,3.8,1.6c10.4,7.2,20.8,14.5,31.2,21.7c50.7,35.3,101.4,70.6,152.1,105.9c0.9,0.7,1.8,1.5,2.6,2.2c-0.4,0.4-0.9,0.7-1.3,1.1c-0.3,0.3-0.7,0.7-1,1c-0.8,0-1.6,0.2-2,1c-0.3,0.3-0.7,0.7-1,1c-0.1,0.2-0.3,0.3-0.4,0.5c0.2-0.1,0.3-0.3,0.5-0.4c0.3-0.3,0.7-0.7,1-1c0.8,0,1.6-0.2,2-1c0.3-0.3,0.7-0.7,1-1c1,0,2-0.1,3-0.1c13.9,9.7,27.9,19.3,41.8,29c41.4,28.7,82.8,57.3,124.1,86.2c7.4,5.2,15.5,9.7,22.1,16c-1.8,1.7-4,0.6-6,0.9c0.1-2.3-1.9-2.9-3.4-3.9c-7.6-5.3-15.4-10.4-22.8-15.9c-12.4-9.1-25-17.8-37.6-26.6c-10.5-7.3-20.9-14.9-31.7-21.8c-9.4-6-18.1-13.2-27.5-19.3c-10.6-6.8-20.6-14.4-31.1-21.3c-8.7-5.7-17.2-11.8-25.7-17.8c-1.7-1.2-3.2-1.7-5-0.5c-3.6,2.6-8.2,4.3-11.2,7.1c-8.6,7.9-19.1,13-28.1,20.2c-11.5,9.1-23.9,17.2-36.2,25.3c-20.4,13.5-40.2,28.1-60.5,41.7c-12.1,8.1-24.1,16.3-35.7,25.2c-3.2,2.4-7.5,3.5-9.5,7.5c-2-0.2-4.2,0.6-6.1-0.7c35.8-25,71.6-49.9,107.3-74.9c4.7-3.3,10-5.9,13.9-10.3c0.7-0.2,1.6-0.3,1.5-1.3c0-0.1-0.2-0.3-0.3-0.3c-1-0.1-1.2,0.7-1.4,1.4c-3.6,0.2-5.8,3-8.5,4.8C141.3,370.8,103.1,396.9,65,423z M237,306c0.3-0.3,0.7-0.7,1-1c0.8,0,1.6-0.2,2-1c0.3-0.3,0.7-0.7,1-1c0.8,0,1.6-0.2,2-1c0.1-0.2,0.3-0.3,0.4-0.5c-0.2,0.1-0.3,0.3-0.5,0.4c-0.8,0-1.6,0.2-2,1c-0.3,0.3-0.7,0.7-1,1c-0.8,0-1.6,0.2-2,1C237.6,305.3,237.3,305.6,237,306c-0.2,0.1-0.4,0.2-0.5,0.4C236.7,306.3,236.9,306.2,237,306z M224,314.9c-0.8,0-1.6,0.2-2,1c-0.6,0.1-1.4,0.1-1.5,1c0,0.2,0.4,0.6,0.6,0.6c0.8-0.1,0.9-0.8,1-1.4C222.9,316,223.6,315.9,224,314.9c0.4-0.2,0.8-0.6,1.1-0.9c0.8,0,1.6-0.2,2-1c0.3-0.3,0.7-0.7,1-1c0.8,0,1.6-0.2,2-1c0.1-0.2,0.3-0.3,0.4-0.5c-0.2,0.1-0.3,0.3-0.5,0.4c-0.8,0-1.6,0.2-2,1c-0.3,0.3-0.7,0.7-1,1c-0.8,0-1.6,0.2-2,1C224.6,314.3,224.3,314.6,224,314.9z M211,324c-0.8,0-1.6,0.2-2,1c-0.8,0.1-1.6,0.2-1.5,1.3c0,0.1,0.2,0.3,0.3,0.3c1.1,0.1,1.2-0.7,1.3-1.5C209.9,325,210.6,324.8,211,324c0.4-0.2,0.7-0.6,1.1-0.9c0.8,0,1.6-0.2,2-1c0.3-0.3,0.7-0.7,1-1c0.8,0,1.6-0.2,2-1c0.1-0.2,0.3-0.3,0.4-0.5c-0.2,0.1-0.3,0.3-0.5,0.4c-0.8,0-1.6,0.2-2,1c-0.3,0.3-0.7,0.7-1,1c-0.8,0-1.6,0.2-2,1C211.6,323.3,211.3,323.6,211,324z M201,331.1c0.8-0.1,1.6-0.2,1.5-1.3c0-0.1-0.2-0.3-0.3-0.3c-1.1-0.1-1.2,0.7-1.3,1.5c-0.8,0-1.5,0.2-2,1c-1.4,0.1-2.4,0.8-3,2c-0.7,0.2-1.6,0.2-1.5,1.3c0,0.1,0.2,0.3,0.3,0.3c1,0.1,1.2-0.7,1.3-1.5c1.4,0,2.8-0.1,3-2C199.9,332,200.6,331.8,201,331.1z M233.8,307.4c-0.1,0.3-0.3,0.6-0.4,0.8c0.3,0.1,0.6,0.4,0.8,0.3c0.2-0.1,0.3-0.5,0.4-0.8C234.3,307.6,234,307.5,233.8,307.4z M205.7,328.1c-0.1-0.3-0.2-0.7-0.4-0.7c-0.2-0.1-0.7,0.1-0.8,0.3c-0.3,0.4-0.1,0.9,0.4,0.9C205.2,328.6,205.4,328.3,205.7,328.1z M247.3,299.6c0.1-0.3,0.2-0.6,0.4-0.8c-0.3-0.1-0.6-0.4-0.8-0.3c-0.2,0.1-0.3,0.5-0.4,0.8C246.7,299.4,247,299.5,247.3,299.6z M192.7,337c-0.2-0.3-0.4-0.6-0.5-0.7c-0.2,0-0.7,0.2-0.7,0.4c-0.2,0.5,0.1,0.9,0.6,0.8C192.3,337.5,192.5,337.2,192.7,337z" fill="#E6E3D6"/>
			<path d="M445,425.1c-6.6-6.4-14.6-10.8-22.1-16c-41.3-28.8-82.7-57.5-124.1-86.2c-13.9-9.7-27.9-19.3-41.8-29c0-0.3-0.1-0.7-0.1-1c20.6-14.3,41.2-28.6,61.8-42.9c41.6-28.7,83.2-57.3,124.7-86c1.3-0.9,2.6-2.1,4.4-2.1c0,88,0,176,0,264.1C447,425.7,446,425.4,445,425.1z" fill="#B6B5AC"/>
			<path d="M73,426c1.9-4,6.3-5.1,9.5-7.5c11.6-8.8,23.6-17.1,35.7-25.2c20.3-13.7,40.1-28.2,60.5-41.7c12.3-8.1,24.7-16.2,36.2-25.3c9.1-7.2,19.5-12.3,28.1-20.2c3.1-2.8,7.6-4.5,11.2-7.1c1.7-1.3,3.2-0.8,5,0.5c8.5,6,17,12.1,25.7,17.8c10.5,6.9,20.5,14.6,31.1,21.3c9.4,6,18.1,13.2,27.5,19.3c10.8,6.9,21.2,14.5,31.7,21.8c12.6,8.8,25.3,17.5,37.6,26.6c7.5,5.5,15.2,10.6,22.8,15.9c1.4,1,3.5,1.6,3.4,3.9C317,426,195,426,73,426z" fill="#E6E3D6"/>
			<path d="M448,426c0-88,0-176,0-264.1c4.3-4.7,9.9-7.6,15-11.3c12.6-9.2,25.3-18.1,37.9-27.1c0.9-0.7,1.8-1.5,3.1-1.5c0.1,1.7,0.2,3.3,0.2,5c0,85.1,0,170.3,0.1,255.4c0,5.8-0.2,11.6-1.6,17.4c-2.5,10.7-8.9,18.1-19.3,21.8C471.9,425.6,460,426.7,448,426z" fill="#B1392F"/>
			<path d="M188.1,340.1c-3.9,4.4-9.2,7-13.9,10.3c-35.7,25-71.5,50-107.3,74.9c-0.7,0.2-1.3,0.4-2,0.6c0-1,0.1-1.9,0.1-2.9c38.2-26.1,76.3-52.2,114.5-78.3c2.7-1.8,4.8-4.7,8.5-4.8L188.1,340.1z" fill="#BEBDB3"/>
			<path d="M257,292.9c0,0.3,0,0.7,0.1,1c-1,0-2,0.1-3,0.1c0,0,0,0,0,0c0.4-0.4,0.9-0.7,1.3-1.1C255.8,292.9,256.4,292.9,257,292.9z" fill="#C7C5BB"/>
			<path d="M195.9,333.9c0.6-1.2,1.6-1.9,3-2l0.1,0.1c-0.2,1.9-1.6,2-3,2L195.9,333.9z" fill="#BEBDB3"/>
			<path d="M233.8,307.4c0.3,0.1,0.6,0.2,0.8,0.3c-0.1,0.3-0.2,0.7-0.4,0.8c-0.2,0.1-0.5-0.2-0.8-0.3C233.5,308,233.6,307.7,233.8,307.4z" fill="#C4C2B8"/>
			<path d="M200.9,330.9c0.1-0.8,0.3-1.5,1.3-1.5c0.1,0,0.3,0.2,0.3,0.3c0,1.1-0.8,1.1-1.5,1.3C201,331.1,200.9,330.9,200.9,330.9z" fill="#BEBDB3"/>
			<path d="M205.7,328.1c-0.2,0.2-0.5,0.5-0.7,0.4c-0.5,0-0.7-0.5-0.4-0.9c0.1-0.2,0.6-0.3,0.8-0.3C205.5,327.4,205.5,327.9,205.7,328.1z" fill="#BEBDB3"/>
			<path d="M247.3,299.6c-0.3-0.1-0.6-0.2-0.8-0.4c0.1-0.3,0.2-0.7,0.4-0.8c0.2-0.1,0.5,0.2,0.8,0.3C247.5,299,247.4,299.3,247.3,299.6z" fill="#C7C5BB"/>
			<path d="M209.1,325.1c-0.1,0.8-0.3,1.5-1.3,1.5c-0.1,0-0.3-0.2-0.3-0.3c0-1.1,0.8-1.1,1.5-1.3C209,325,209.1,325.1,209.1,325.1z" fill="#BEBDB3"/>
			<path d="M222.1,316.1c-0.1,0.7-0.2,1.3-1,1.4c-0.2,0-0.6-0.4-0.6-0.6c0.1-0.8,0.8-0.9,1.5-1C222,316,222.1,316.1,222.1,316.1z" fill="#C2C0B6"/>
			<path d="M196.1,334.1c-0.2,0.8-0.3,1.5-1.3,1.5c-0.1,0-0.3-0.2-0.3-0.3c-0.1-1.1,0.8-1.1,1.5-1.3C195.9,333.9,196.1,334.1,196.1,334.1z" fill="#BEBDB3"/>
			<path d="M192.7,337c-0.2,0.2-0.4,0.5-0.6,0.5c-0.6,0.1-0.8-0.3-0.6-0.8c0.1-0.2,0.5-0.4,0.7-0.4C192.3,336.4,192.5,336.8,192.7,337z" fill="#BEBDB3"/>
			<path d="M187.9,339.9c0.2-0.8,0.3-1.5,1.4-1.4c0.1,0,0.3,0.2,0.3,0.3c0.1,1.1-0.8,1.1-1.5,1.3C188.1,340.1,187.9,339.9,187.9,339.9z" fill="#BEBDB3"/>
			<path d="M240,304c-0.4,0.8-1.2,1-2,1c0,0-0.1-0.1-0.1-0.1C238.4,304.2,239.1,304,240,304L240,304z" fill="#C4C2B8"/>
			<path d="M199,331.9c0.4-0.8,1.2-1,2-1c0,0,0.1,0.1,0.1,0.1c-0.4,0.8-1.2,1-2,1C199.1,332.1,199,331.9,199,331.9z" fill="#BEBDB3"/>
			<path d="M228,312c0.4-0.8,1.2-1,2-1l0.1,0.1C229.6,311.8,228.9,312,228,312L228,312z" fill="#C2C0B6"/>
			<path d="M227,313c-0.4,0.8-1.2,1-2,1L225,314C225.4,313.2,226.1,313,227,313C227,313,227,313,227,313z" fill="#C2C0B6"/>
			<path d="M215,321c0.4-0.8,1.2-1,2-1l0.1,0.1C216.6,320.8,215.9,321,215,321C215,321,215,321,215,321z" fill="#BEBDB3"/>
			<path d="M214,322c-0.4,0.8-1.2,1-2,1L212,323C212.4,322.1,213.1,322,214,322L214,322z" fill="#BEBDB3"/>
			<path d="M211,324c-0.4,0.8-1.2,1-2,1c0,0-0.1-0.1-0.1-0.1C209.4,324.2,210.1,324,211,324C211,324,211,324,211,324z" fill="#BEBDB3"/>
			<path d="M253,295c-0.4,0.8-1.2,1-2,1c0,0-0.1-0.1-0.1-0.1C251.4,295.2,252.1,295,253,295C253,295,253,295,253,295z" fill="#C7C5BB"/>
			<path d="M241,303c0.4-0.8,1.2-1,2-1l0,0C242.6,302.8,241.9,303,241,303C241,303,241,303,241,303z" fill="#C4C2B8"/>
			<path d="M224,315c-0.4,0.8-1.2,1-2,1c0,0-0.1-0.1-0.1-0.1C222.4,315.2,223.1,315,224,315C224,314.9,224,315,224,315z" fill="#C2C0B6"/>
			<path d="M214,322c0.3-0.3,0.7-0.7,1-1c0,0,0.1,0.1,0.1,0.1C214.7,321.4,214.4,321.7,214,322C214,322,214,322,214,322z" fill="#BEBDB3"/>
			<path d="M225,314c-0.3,0.3-0.7,0.7-1,1c0,0-0.1-0.1-0.1-0.1C224.3,314.6,224.6,314.3,225,314C225,314,225,314,225,314z" fill="#C2C0B6"/>
			<path d="M237,306c0.3-0.3,0.7-0.7,1-1c0,0,0.1,0.1,0.1,0.1C237.7,305.4,237.4,305.7,237,306L237,306z" fill="#C4C2B8"/>
			<path d="M230,311c0.2-0.1,0.3-0.3,0.5-0.4C230.3,310.7,230.2,310.9,230,311C230,311,230,311,230,311z" fill="#C2C0B6"/>
			<path d="M243,302c0.2-0.1,0.3-0.3,0.5-0.4C243.3,301.7,243.2,301.9,243,302C243,302,243,302,243,302z" fill="#C4C2B8"/>
			<path d="M250,297c-0.2,0.1-0.3,0.3-0.5,0.4C249.7,297.3,249.8,297.1,250,297C250,297,250,297,250,297z" fill="#C7C5BB"/>
			<path d="M250,297c0.3-0.3,0.7-0.7,1-1c0,0,0.1,0.1,0.1,0.1C250.7,296.4,250.4,296.7,250,297C250,297,250,297,250,297z" fill="#C7C5BB"/>
			<path d="M240,304c0.3-0.3,0.7-0.7,1-1c0,0,0.1,0.1,0.1,0.1C240.7,303.4,240.4,303.7,240,304C240,304,240,304,240,304z" fill="#C4C2B8"/>
			<path d="M254,294c-0.3,0.3-0.7,0.7-1,1c0,0-0.1-0.1-0.1-0.1C253.3,294.6,253.6,294.3,254,294C254,294,254,294,254,294z" fill="#C7C5BB"/>
			<path d="M237,306c-0.2,0.1-0.3,0.3-0.5,0.4C236.7,306.3,236.8,306.1,237,306C237,306,237,306,237,306z" fill="#C4C2B8"/>
			<path d="M217,320c0.2-0.1,0.3-0.3,0.5-0.4C217.3,319.7,217.2,319.9,217,320C217,320,217,320,217,320z" fill="#BEBDB3"/>
			<path d="M228,312c-0.3,0.3-0.7,0.7-1,1c0,0-0.1-0.1-0.1-0.1C227.3,312.6,227.6,312.3,228,312C228,312,228,312,228,312z" fill="#C2C0B6"/>
			<path d="M212,323c-0.3,0.3-0.7,0.7-1,1c0,0-0.1-0.1-0.1-0.1C211.3,323.6,211.6,323.3,212,323C212,323,212,323,212,323z" fill="#BEBDB3"/>
		</symbol>

		<!-- LINKEDIN -->
		<symbol id="icon-linkedin" viewBox="0 0 24 24">
			<title>Linkedin icon</title>
      <rect fill="#ffffff" x="2" y="2" width="20px" height="20px"></rect>
      <path d="M19,0 L5,0 C2.239,0 0,2.239 0,5 L0,19 C0,21.761 2.239,24 5,24 L19,24 C21.762,24 24,21.761 24,19 L24,5 C24,2.239 21.762,0 19,0 Z M8,19 L5,19 L5,8 L8,8 L8,19 Z M6.5,6.732 C5.534,6.732 4.75,5.942 4.75,4.968 C4.75,3.994 5.534,3.204 6.5,3.204 C7.466,3.204 8.25,3.994 8.25,4.968 C8.25,5.942 7.467,6.732 6.5,6.732 Z M20,19 L17,19 L17,13.396 C17,10.028 13,10.283 13,13.396 L13,19 L10,19 L10,8 L13,8 L13,9.765 C14.396,7.179 20,6.988 20,12.241 L20,19 Z" id="Shape" fill="#1D87BD" fill-rule="nonzero"></path>
		</symbol>

		<!-- MEDIUM -->
		<symbol id="icon-medium" viewBox="0 0 256 208">
			<title>Medium icon</title>
      <path d="M177.735242,1.67620228 C173.837865,-0.18165739 170.650604,1.69271659 170.650604,5.85432226 L170.650604,171.360719 L241.794244,205.322394 C249.622026,209.120685 255.971777,206.478396 255.971777,199.542386 L255.971777,40.1793119 C255.971777,39.5187396 255.55892,38.9407388 254.94789,38.6104526 L177.743499,1.78354529 L177.743499,1.70097375 L177.735242,1.67620228 L177.735242,1.67620228 Z" fill="#32FC8D"></path>
      <path d="M85.3211734,130.636435 L166.488998,4.73960646 C168.784487,1.18903019 173.837865,-0.214686007 177.718728,1.6018879 L255.038719,38.5113668 C255.534148,38.7590814 255.715806,39.3370822 255.426805,39.7499399 L170.642347,171.377233 L85.3211734,130.652949 L85.3211734,130.636435 L85.3211734,130.636435 Z" fill="#0BE370"></path>
      <path d="M11.8077304,3.9221482 C5.31760724,0.825715411 3.1129471,3.12946141 6.91949514,9.04158375 L85.3211734,130.636435 L170.642347,171.360719 L85.5110879,39.3040535 C85.3872306,39.114139 85.2138304,38.9572531 85.0156587,38.8581672 L11.8077304,3.93040535 L11.8077304,3.9221482 L11.8077304,3.9221482 Z" fill="#14C767"></path>
      <path d="M85.3211734,199.476329 C85.3211734,206.412338 80.0118233,209.550057 73.513443,206.445367 L7.08463822,174.737895 C3.18726149,172.888293 0,167.967029 0,163.797166 L0,8.38101142 C0,2.83220386 4.25243436,0.32202901 9.45444145,2.8074324 L84.8670299,38.8086243 C85.1477731,38.9324816 85.3211734,39.2049677 85.3211734,39.5022252 L85.3211734,199.4433 L85.3211734,199.476329 L85.3211734,199.476329 Z" fill="#00AB6C"></path>
		</symbol>

		<!-- TWITTER -->
		<symbol id="icon-twitter" viewBox="126.444 2.281 589 589">
			<title>Twitter icon</title>
      <circle style="fill:#2DAAE1;" cx="420.944" cy="296.781" r="294.5"/>
      <path style="fill:#ffffff;" d="M609.773,179.634c-13.891,6.164-28.811,10.331-44.498,12.204	c16.01-9.587,28.275-24.779,34.066-42.86c-14.955,8.879-31.537,15.328-49.209,18.801c-14.125-15.056-34.267-24.456-56.551-24.456	c-42.773,0-77.462,34.675-77.462,77.473c0,6.064,0.683,11.98,1.996,17.66c-64.389-3.236-121.474-34.079-159.684-80.945	c-6.672,11.446-10.491,24.754-10.491,38.953c0,26.875,13.679,50.587,34.464,64.477c-12.699-0.396-24.643-3.882-35.097-9.686	c0,0.322,0,0.645,0,0.979c0,37.54,26.701,68.842,62.145,75.961c-6.511,1.784-13.344,2.716-20.413,2.716	c-4.998,0-9.847-0.473-14.584-1.364c9.859,30.769,38.471,53.166,72.363,53.799c-26.515,20.785-59.925,33.175-96.212,33.175	c-6.25,0-12.427-0.373-18.491-1.104c34.291,21.988,75.006,34.824,118.759,34.824c142.496,0,220.428-118.052,220.428-220.428	c0-3.361-0.074-6.697-0.236-10.021C586.245,208.815,599.392,195.174,609.773,179.634z"/>
		</symbol>
	</defs>
</svg>
