<svg style="display:none" xmlns="http://www.w3.org/2000/svg" xmlns:xlink="http://www.w3.org/1999/xlink">
  <defs>
    <symbol id="icon-wifi" viewBox="81 2 14 10">
      <title>Wifi icon</title>
      <path fill="#030303" fill-rule="evenodd" d="M90.144 9.44c-.518-.595-1.292-.97-2.156-.97-.85 0-1.61.36-2.128.935l2.163 2.095 2.12-2.06zm2.18-2.12c-1.08-1.128-2.623-1.836-4.336-1.836-1.7 0-3.23.696-4.31 1.81l1.09 1.055c.8-.85 1.946-1.38 3.22-1.38 1.29 0 2.448.54 3.247 1.4l1.088-1.06zM94.5 5.208C92.863 3.54 90.55 2.5 87.988 2.5c-2.55 0-4.852 1.03-6.488 2.682l1.09 1.055c1.356-1.383 3.273-2.245 5.398-2.245 2.138 0 4.066.874 5.424 2.272L94.5 5.207z"/>
    </symbol>
    <symbol id="icon-battery" viewBox="36 2 25 10">
      <title>Battery icon</title>
      <path fill="#030303" fill-rule="evenodd" d="M37.494 2.5C36.67 2.5 36 3.168 36 4.005v6.49c0 .83.673 1.505 1.494 1.505h19.512c.825 0 1.494-.668 1.494-1.505v-6.49c0-.83-.673-1.505-1.494-1.505H37.494zM59 5.5V9h.75c.414 0 .75-.336.75-.742V6.242c0-.41-.333-.742-.75-.742H59zM37.508 3c-.557 0-1.008.457-1.008 1.008v6.484c0 .557.45 1.008 1.008 1.008h19.484c.557 0 1.008-.457 1.008-1.008V4.008C58 3.45 57.55 3 56.992 3H37.508zm0 .5c-.28 0-.508.216-.508.492v6.516c0 .272.23.492.507.492h19.486c.28 0 .507-.216.507-.492V3.992c0-.272-.23-.492-.507-.492H37.507z"/>
    </symbol>
    <symbol id="icon-close" viewBox="0 0 24 24">
      <title>Close icon</title>
      <path d="M19 6.41L17.59 5 12 10.59 6.41 5 5 6.41 10.59 12 5 17.59 6.41 19 12 13.41 17.59 19 19 17.59 13.41 12z"/>
      <path fill="none" d="M0 0h24v24H0z"/>
    </symbol>
    <symbol id="icon-codepen" viewBox="0 0 256 256">
      <title>Codepen icon</title>
      <path fill="#EEE" d="M255.807 87.087c-.06-.31-.11-.62-.193-.924-.052-.183-.114-.355-.172-.535-.087-.27-.176-.537-.283-.8-.08-.182-.17-.358-.25-.534-.12-.248-.24-.493-.38-.73-.1-.176-.21-.342-.32-.51-.15-.228-.3-.452-.47-.67-.12-.162-.25-.317-.38-.472-.17-.207-.36-.403-.55-.596-.15-.145-.29-.29-.45-.43-.2-.184-.41-.356-.62-.522-.17-.127-.33-.258-.5-.376-.06-.044-.12-.096-.19-.138l-116.99-78c-3.7-2.466-8.51-2.466-12.21 0l-117 77.997c-.065.04-.116.093-.18.138-.17.12-.33.248-.5.376-.21.17-.42.35-.62.52-.15.14-.3.28-.44.43-.196.2-.37.39-.55.6-.13.16-.256.31-.377.49-.165.22-.32.44-.465.67-.11.17-.216.34-.316.51-.14.24-.26.48-.37.73-.088.18-.177.36-.25.54-.11.27-.2.53-.29.8-.057.18-.12.36-.17.52-.077.31-.136.61-.19.93-.03.16-.07.32-.09.48-.063.48-.097.95-.097 1.44v78c0 .48.03.97.1 1.44.023.17.07.31.102.48.055.31.1.62.207.93.05.17.104.347.173.536.085.277.17.55.275.805.07.177.17.35.24.52.112.24.24.485.38.737.094.17.204.35.31.5.15.25.31.45.48.66.12.18.243.31.38.48.176.21.345.42.55.6.143.14.28.31.45.42.2.17.414.344.62.52.166.14.346.247.483.38.06.03.1.1.17.13l116.965 78.04c1.85 1.24 3.966 1.868 6.1 1.85 2.14-.01 4.256-.62 6.1-1.85l117-77.992c.07-.04.12-.09.186-.133.17-.12.33-.25.5-.38.21-.17.42-.345.62-.524.15-.137.295-.285.44-.43.19-.19.372-.39.545-.596.13-.158.257-.31.378-.48.16-.22.31-.44.46-.67.11-.166.22-.335.32-.504.134-.24.254-.49.37-.73.083-.18.17-.35.245-.53.11-.27.2-.54.284-.81.056-.18.12-.356.17-.535.08-.3.135-.61.19-.92.03-.16.07-.317.09-.48.06-.48.096-.954.096-1.44V89c0-.486-.04-.962-.098-1.438-.03-.17-.08-.306-.116-.475h.015zm-127.81 66.935l-38.905-26.02 38.905-26.026L166.904 128l-38.907 26.022zM117 82.867l-47.693 31.9L30.81 89.013 117 31.553v51.314zm-67.478 45.13l-27.517 18.406v-36.81l27.517 18.404zm19.785 13.245L117 173.138v51.312l-86.19-57.465 38.497-25.75v.007zm69.69 31.89l47.692-31.896 38.5 25.75-86.2 57.457V173.13zm67.477-45.128l27.52-18.41v36.816l-27.52-18.413v.007zm-19.785-13.238l-47.7-31.896V31.555l86.19 57.46-38.5 25.75z"/>
    </symbol>
    <symbol id="icon-dribbble" viewBox="0 0 256 256">
      <title>Dribbble icon</title>
      <path fill="#E74D89" d="M128 8.5c66 0 119.4 53.4 119.4 119.3S194 247.2 128 247.2 8.6 193.8 8.6 127.9 62 8.5 128 8.5z"/>
      <path fill="#B2215A" d="M128 255.7c-70.6 0-128-57.3-128-127.8C0 57.3 57.4 0 128 0s128 57.3 128 127.8-57.4 127.9-128 127.9zm107.9-110.4c-3.7-1.2-33.8-10.1-68.1-4.7 14.3 39.2 20.1 71.2 21.2 77.8 24.6-16.5 42.1-42.7 46.9-73.1zm-65.2 83.2c-1.6-9.6-8-43-23.3-82.8-.2.1-.5.2-.7.2-61.7 21.5-83.8 64.2-85.8 68.2 18.5 14.4 41.8 23 67.1 23 15.1.1 29.6-3 42.7-8.6zM46.8 201c2.5-4.2 32.5-53.8 88.9-72.1 1.4-.5 2.9-.9 4.3-1.3-2.7-6.2-5.7-12.4-8.9-18.5-54.6 16.3-107.6 15.6-112.4 15.5 0 1.1-.1 2.2-.1 3.3.1 28.1 10.7 53.7 28.2 73.1zM21 105.6c4.9.1 49.9.3 101.1-13.3C104 60.1 84.4 33.1 81.6 29.2 50.9 43.6 28.1 71.8 21 105.6zm81.4-83.8c3 4 22.9 31 40.8 63.9 38.9-14.6 55.3-36.6 57.3-39.4-19.3-17.1-44.7-27.5-72.5-27.5-8.8 0-17.4 1.1-25.6 3zm110.2 37.1c-2.3 3.1-20.6 26.6-61 43.1 2.5 5.2 5 10.5 7.3 15.8.8 1.9 1.6 3.8 2.4 5.6 36.4-4.6 72.5 2.8 76.1 3.5-.3-25.7-9.5-49.4-24.8-68z"/>
    </symbol>
    <symbol id="icon-github" viewBox="10 10 24 24">
      <title>Github icon</title>
      <path fill="#EEE" fill-rule="evenodd" d="M10 22.304c0 5.436 3.438 10.048 8.207 11.675.6.11.82-.27.82-.6 0-.29-.012-1.07-.018-2.09-3.34.74-4.05-1.65-4.05-1.65-.55-1.42-1.33-1.8-1.33-1.8-1.09-.77.08-.75.08-.75 1.2.08 1.84 1.27 1.84 1.27 1.07 1.88 2.81 1.34 3.49 1.02.11-.8.42-1.34.76-1.65-2.67-.31-5.47-1.37-5.47-6.08 0-1.35.46-2.44 1.23-3.3-.13-.32-.54-1.57.11-3.26 0 0 1.01-.33 3.3 1.26.96-.27 1.98-.41 3-.42 1.02 0 2.04.14 3 .41 2.29-1.59 3.29-1.26 3.29-1.26.65 1.69.24 2.94.12 3.25.77.86 1.23 1.95 1.23 3.3 0 4.72-2.81 5.76-5.48 6.07.43.38.81 1.13.81 2.28 0 1.64-.02 2.97-.02 3.37 0 .33.214.71.823.59 4.766-1.63 8.2-6.24 8.2-11.67C34 15.51 28.623 10 22 10s-12 5.51-12 12.304z"/>
    </symbol>
    <symbol id="icon-gmail" viewBox="0 0 512 512">
      <title>Gmail icon</title>
      <path fill="#E65A4D" d="M461.1 70.3c4.5-2.7 9.1-1.2 13.5 0 17.1 4.7 29.2 20.4 29.5 38.3.1 4.5-.1 9-.1 13.4-1.3 0-2.1.8-3.1 1.5-12.6 9-25.4 18-37.9 27.1-5.1 3.7-10.7 6.6-15 11.3-1.8 0-3.1 1.2-4.4 2.1-41.6 28.7-83.2 57.3-124.7 86-20.6 14.2-41.2 28.6-61.8 42.9h-1.7c-.9-.7-1.7-1.6-2.6-2.2L100.7 184.8c-10.4-7.2-20.8-14.5-31.2-21.7-1.2-.8-2.3-2.5-3.8-1.6-1.4.8-.5 2.7-.7 4.2-.1.5 0 1 0 1.5v250.5c0 1.8.1 3.7.2 5.5 0 1-.1 1.9-.1 2.9-19 2.3-36.3-.3-48.2-17.5-4.3-6.3-6.8-13.3-6.8-21.1 0-93.3-.1-186.5.1-279.8 0-19 15.4-35.8 34.3-38.5 3-.4 6-.8 8.6 1.2.6.6 1.1 1.2 1.8 1.7 66.1 49 132.2 98 198.3 147.1 2.6 1.9 4.3 1.8 6.9-.1 52.8-39 105.7-77.9 158.5-116.8 14-10.7 28.2-21.4 42.5-32z"/>
      <path fill="#F6F4EC" d="M461.1 70.3c-14.3 10.6-28.5 21.3-42.8 31.9-52.8 39-105.7 77.8-158.5 116.8-2.6 1.9-4.2 2-6.9.1-66-49.1-132.1-98-198.2-147.1-.7-.5-1.2-1.1-1.8-1.7 1.2-2 3.3-1.3 5-1.3h398.2c1.7 0 3.7-.7 5 1.3z"/>
      <path fill="#E6E3D6" d="M65 423c-.1-1.8-.2-3.7-.2-5.5V167c0-.5-.1-1 0-1.5.2-1.4-.7-3.3.7-4.2 1.5-.9 2.7.8 3.8 1.6 10.4 7.2 20.8 14.5 31.2 21.7l152.1 105.9c.9.7 1.8 1.5 2.6 2.2-.4.4-.9.7-1.3 1.1l-1 1c-.8 0-1.6.2-2 1l-1 1c-.1.2-.3.3-.4.5.2-.1.3-.3.5-.4l1-1c.8 0 1.6-.2 2-1l1-1c1 0 2-.1 3-.1 13.9 9.7 27.9 19.3 41.8 29 41.4 28.7 82.8 57.3 124.1 86.2 7.4 5.2 15.5 9.7 22.1 16-1.8 1.7-4 .6-6 .9.1-2.3-1.9-2.9-3.4-3.9-7.6-5.3-15.4-10.4-22.8-15.9-12.4-9.1-25-17.8-37.6-26.6-10.5-7.3-20.9-14.9-31.7-21.8-9.4-6-18.1-13.2-27.5-19.3-10.6-6.8-20.6-14.4-31.1-21.3-8.7-5.7-17.2-11.8-25.7-17.8-1.7-1.2-3.2-1.7-5-.5-3.6 2.6-8.2 4.3-11.2 7.1-8.6 7.9-19.1 13-28.1 20.2-11.5 9.1-23.9 17.2-36.2 25.3-20.4 13.5-40.2 28.1-60.5 41.7-12.1 8.1-24.1 16.3-35.7 25.2-3.2 2.4-7.5 3.5-9.5 7.5-2-.2-4.2.6-6.1-.7 35.8-25 71.6-49.9 107.3-74.9 4.7-3.3 10-5.9 13.9-10.3.7-.2 1.6-.3 1.5-1.3 0-.1-.2-.3-.3-.3-1-.1-1.2.7-1.4 1.4-3.6.2-5.8 3-8.5 4.8-38.1 26.3-76.3 52.4-114.4 78.5zm172-117l1-1c.8 0 1.6-.2 2-1l1-1c.8 0 1.6-.2 2-1 .1-.2.3-.3.4-.5-.2.1-.3.3-.5.4-.8 0-1.6.2-2 1l-1 1c-.8 0-1.6.2-2 1-.3.4-.6.7-.9 1.1-.2.1-.4.2-.5.4.2-.1.4-.2.5-.4zm-13 8.9c-.8 0-1.6.2-2 1-.6.1-1.4.1-1.5 1 0 .2.4.6.6.6.8-.1.9-.8 1-1.4.8-.1 1.5-.2 1.9-1.2.4-.2.8-.6 1.1-.9.8 0 1.6-.2 2-1l1-1c.8 0 1.6-.2 2-1 .1-.2.3-.3.4-.5-.2.1-.3.3-.5.4-.8 0-1.6.2-2 1l-1 1c-.8 0-1.6.2-2 1l-1 1zm-13 9.1c-.8 0-1.6.2-2 1-.8.1-1.6.2-1.5 1.3 0 .1.2.3.3.3 1.1.1 1.2-.7 1.3-1.5.8-.1 1.5-.3 1.9-1.1.4-.2.7-.6 1.1-.9.8 0 1.6-.2 2-1l1-1c.8 0 1.6-.2 2-1 .1-.2.3-.3.4-.5-.2.1-.3.3-.5.4-.8 0-1.6.2-2 1l-1 1c-.8 0-1.6.2-2 1-.4.3-.7.6-1 1zm-10 7.1c.8-.1 1.6-.2 1.5-1.3 0-.1-.2-.3-.3-.3-1.1-.1-1.2.7-1.3 1.5-.8 0-1.5.2-2 1-1.4.1-2.4.8-3 2-.7.2-1.6.2-1.5 1.3 0 .1.2.3.3.3 1 .1 1.2-.7 1.3-1.5 1.4 0 2.8-.1 3-2 .9-.1 1.6-.3 2-1zm32.8-23.7c-.1.3-.3.6-.4.8.3.1.6.4.8.3.2-.1.3-.5.4-.8-.3-.1-.6-.2-.8-.3zm-28.1 20.7c-.1-.3-.2-.7-.4-.7-.2-.1-.7.1-.8.3-.3.4-.1.9.4.9.3 0 .5-.3.8-.5zm41.6-28.5c.1-.3.2-.6.4-.8-.3-.1-.6-.4-.8-.3-.2.1-.3.5-.4.8.2.1.5.2.8.3zM192.7 337c-.2-.3-.4-.6-.5-.7-.2 0-.7.2-.7.4-.2.5.1.9.6.8.2 0 .4-.3.6-.5z"/>
      <path fill="#B6B5AC" d="M445 425.1c-6.6-6.4-14.6-10.8-22.1-16-41.3-28.8-82.7-57.5-124.1-86.2-13.9-9.7-27.9-19.3-41.8-29 0-.3-.1-.7-.1-1l61.8-42.9c41.6-28.7 83.2-57.3 124.7-86 1.3-.9 2.6-2.1 4.4-2.1V426c-.8-.3-1.8-.6-2.8-.9z"/>
      <path fill="#E6E3D6" d="M73 426c1.9-4 6.3-5.1 9.5-7.5 11.6-8.8 23.6-17.1 35.7-25.2 20.3-13.7 40.1-28.2 60.5-41.7 12.3-8.1 24.7-16.2 36.2-25.3 9.1-7.2 19.5-12.3 28.1-20.2 3.1-2.8 7.6-4.5 11.2-7.1 1.7-1.3 3.2-.8 5 .5 8.5 6 17 12.1 25.7 17.8 10.5 6.9 20.5 14.6 31.1 21.3 9.4 6 18.1 13.2 27.5 19.3 10.8 6.9 21.2 14.5 31.7 21.8 12.6 8.8 25.3 17.5 37.6 26.6 7.5 5.5 15.2 10.6 22.8 15.9 1.4 1 3.5 1.6 3.4 3.9-122-.1-244-.1-366-.1z"/>
      <path fill="#B1392F" d="M448 426V161.9c4.3-4.7 9.9-7.6 15-11.3 12.6-9.2 25.3-18.1 37.9-27.1.9-.7 1.8-1.5 3.1-1.5.1 1.7.2 3.3.2 5 0 85.1 0 170.3.1 255.4 0 5.8-.2 11.6-1.6 17.4-2.5 10.7-8.9 18.1-19.3 21.8-11.5 4-23.4 5.1-35.4 4.4z"/>
      <path fill="#BEBDB3" d="M188.1 340.1c-3.9 4.4-9.2 7-13.9 10.3-35.7 25-71.5 50-107.3 74.9-.7.2-1.3.4-2 .6 0-1 .1-1.9.1-2.9 38.2-26.1 76.3-52.2 114.5-78.3 2.7-1.8 4.8-4.7 8.5-4.8l.1.2z"/>
      <path fill="#C7C5BB" d="M257 292.9c0 .3 0 .7.1 1-1 0-2 .1-3 .1.4-.4.9-.7 1.3-1.1h1.6z"/>
      <path fill="#BEBDB3" d="M195.9 333.9c.6-1.2 1.6-1.9 3-2l.1.1c-.2 1.9-1.6 2-3 2l-.1-.1z"/>
      <path fill="#C4C2B8" d="M233.8 307.4c.3.1.6.2.8.3-.1.3-.2.7-.4.8-.2.1-.5-.2-.8-.3.1-.2.2-.5.4-.8z"/>
      <path fill="#BEBDB3" d="M200.9 330.9c.1-.8.3-1.5 1.3-1.5.1 0 .3.2.3.3 0 1.1-.8 1.1-1.5 1.3 0 .1-.1-.1-.1-.1zm4.8-2.8c-.2.2-.5.5-.7.4-.5 0-.7-.5-.4-.9.1-.2.6-.3.8-.3.1.1.1.6.3.8z"/>
      <path fill="#C7C5BB" d="M247.3 299.6c-.3-.1-.6-.2-.8-.4.1-.3.2-.7.4-.8.2-.1.5.2.8.3-.2.3-.3.6-.4.9z"/>
      <path fill="#BEBDB3" d="M209.1 325.1c-.1.8-.3 1.5-1.3 1.5-.1 0-.3-.2-.3-.3 0-1.1.8-1.1 1.5-1.3l.1.1z"/>
      <path fill="#C2C0B6" d="M222.1 316.1c-.1.7-.2 1.3-1 1.4-.2 0-.6-.4-.6-.6.1-.8.8-.9 1.5-1 0 .1.1.2.1.2z"/>
      <path fill="#BEBDB3" d="M196.1 334.1c-.2.8-.3 1.5-1.3 1.5-.1 0-.3-.2-.3-.3-.1-1.1.8-1.1 1.5-1.3l.1.1zm-3.4 2.9c-.2.2-.4.5-.6.5-.6.1-.8-.3-.6-.8.1-.2.5-.4.7-.4.1.1.3.5.5.7zm-4.8 2.9c.2-.8.3-1.5 1.4-1.4.1 0 .3.2.3.3.1 1.1-.8 1.1-1.5 1.3l-.2-.2z"/>
      <path fill="#C4C2B8" d="M240 304c-.4.8-1.2 1-2 1l-.1-.1c.5-.7 1.2-.9 2.1-.9z"/>
      <path fill="#BEBDB3" d="M199 331.9c.4-.8 1.2-1 2-1l.1.1c-.4.8-1.2 1-2 1 0 .1-.1-.1-.1-.1z"/>
      <path fill="#C2C0B6" d="M228 312c.4-.8 1.2-1 2-1l.1.1c-.5.7-1.2.9-2.1.9zm-1 1c-.4.8-1.2 1-2 1 .4-.8 1.1-1 2-1z"/>
      <path fill="#BEBDB3" d="M215 321c.4-.8 1.2-1 2-1l.1.1c-.5.7-1.2.9-2.1.9zm-1 1c-.4.8-1.2 1-2 1 .4-.9 1.1-1 2-1zm-3 2c-.4.8-1.2 1-2 1l-.1-.1c.5-.7 1.2-.9 2.1-.9z"/>
      <path fill="#C7C5BB" d="M253 295c-.4.8-1.2 1-2 1l-.1-.1c.5-.7 1.2-.9 2.1-.9z"/>
      <path fill="#C4C2B8" d="M241 303c.4-.8 1.2-1 2-1-.4.8-1.1 1-2 1z"/>
      <path fill="#C2C0B6" d="M224 315c-.4.8-1.2 1-2 1l-.1-.1c.5-.7 1.2-.9 2.1-.9 0-.1 0 0 0 0z"/>
      <path fill="#BEBDB3" d="M214 322l1-1 .1.1c-.4.3-.7.6-1.1.9z"/>
      <path fill="#C2C0B6" d="M225 314l-1 1-.1-.1c.4-.3.7-.6 1.1-.9z"/>
      <path fill="#C4C2B8" d="M237 306l1-1 .1.1c-.4.3-.7.6-1.1.9z"/>
      <path fill="#C2C0B6" d="M230 311c.2-.1.3-.3.5-.4-.2.1-.3.3-.5.4z"/>
      <path fill="#C4C2B8" d="M243 302c.2-.1.3-.3.5-.4-.2.1-.3.3-.5.4z"/>
      <path fill="#C7C5BB" d="M250 297c-.2.1-.3.3-.5.4.2-.1.3-.3.5-.4zm0 0l1-1 .1.1c-.4.3-.7.6-1.1.9z"/>
      <path fill="#C4C2B8" d="M240 304l1-1 .1.1c-.4.3-.7.6-1.1.9z"/>
      <path fill="#C7C5BB" d="M254 294l-1 1-.1-.1c.4-.3.7-.6 1.1-.9z"/>
      <path fill="#C4C2B8" d="M237 306c-.2.1-.3.3-.5.4.2-.1.3-.3.5-.4z"/>
      <path fill="#BEBDB3" d="M217 320c.2-.1.3-.3.5-.4-.2.1-.3.3-.5.4z"/>
      <path fill="#C2C0B6" d="M228 312l-1 1-.1-.1c.4-.3.7-.6 1.1-.9z"/>
      <path fill="#BEBDB3" d="M212 323l-1 1-.1-.1c.4-.3.7-.6 1.1-.9z"/>
    </symbol>
    <symbol id="icon-linkedin" viewBox="0 0 24 24">
      <title>Linkedin icon</title>
      <path fill="#fff" d="M2 2h20v20H2z"/>
      <path fill="#1D87BD" d="M19 0H5C2.24 0 0 2.24 0 5v14c0 2.76 2.24 5 5 5h14c2.762 0 5-2.24 5-5V5c0-2.76-2.238-5-5-5zM8 19H5V8h3v11zM6.5 6.732c-.966 0-1.75-.79-1.75-1.764s.784-1.764 1.75-1.764 1.75.79 1.75 1.764-.783 1.764-1.75 1.764zM20 19h-3v-5.604c0-3.368-4-3.113-4 0V19h-3V8h3v1.765c1.396-2.586 7-2.777 7 2.476V19z"/>
    </symbol>
    <symbol id="icon-medium" viewBox="0 0 256 208">
      <title>Medium icon</title>
      <path fill="#32FC8D" d="M177.735 1.676c-3.897-1.858-7.084.017-7.084 4.178V171.36l71.15 33.962c7.83 3.8 14.18 1.156 14.18-5.78V40.18c0-.66-.41-1.24-1.02-1.57L177.75 1.784V1.7l-.008-.024z"/>
      <path fill="#0BE370" d="M85.32 130.636L166.49 4.74c2.294-3.55 7.348-4.955 11.23-3.138l77.32 36.91c.494.247.676.825.387 1.238l-84.785 131.627-85.32-40.724v-.017z"/>
      <path fill="#14C767" d="M11.808 3.922c-6.49-3.096-8.695-.793-4.89 5.12L85.32 130.636l85.323 40.725-85.13-132.05c-.125-.19-.298-.34-.496-.44L11.807 3.93v-.008z"/>
      <path fill="#00AB6C" d="M85.32 199.476c0 6.936-5.308 10.074-11.807 6.97l-66.428-31.71C3.187 172.89 0 167.97 0 163.8V8.38C0 2.833 4.252.323 9.454 2.808L84.867 38.81c.28.122.454.395.454.692v159.974z"/>
    </symbol>
    <symbol id="icon-twitter" viewBox="126.444 2.281 589 589">
      <title>Twitter icon</title>
      <circle cx="420.944" cy="296.781" r="294.5" fill="#2DAAE1"/>
      <path fill="#fff" d="M609.773 179.634c-13.89 6.164-28.81 10.33-44.498 12.204 16.01-9.587 28.275-24.78 34.066-42.86-14.95 8.88-31.53 15.328-49.2 18.8-14.12-15.055-34.26-24.455-56.55-24.455-42.77 0-77.46 34.675-77.46 77.473 0 6.064.69 11.98 2 17.66-64.39-3.236-121.47-34.08-159.68-80.945-6.67 11.45-10.49 24.76-10.49 38.96 0 26.88 13.68 50.59 34.47 64.48-12.7-.39-24.64-3.88-35.09-9.68v.98c0 37.54 26.7 68.84 62.15 75.96-6.51 1.79-13.34 2.72-20.41 2.72-5 0-9.84-.47-14.58-1.36 9.86 30.77 38.47 53.17 72.36 53.8-26.51 20.79-59.92 33.18-96.21 33.18-6.25 0-12.43-.37-18.49-1.1 34.29 21.99 75 34.83 118.76 34.83 142.5 0 220.43-118.05 220.43-220.43 0-3.36-.072-6.69-.24-10.02 15.18-10.97 28.33-24.62 38.71-40.16z"/>
    </symbol>
  </defs>
</svg>
